<svg width="270" height="203" xmlns="http://www.w3.org/2000/svg"><g fill="none" fill-rule="evenodd"><rect fill="#2A7BBE" x="12" y="42" width="230" height="161" rx="8"/><path d="M8 38v145h214V38H8zm0-8h214a8 8 0 0 1 8 8v145a8 8 0 0 1-8 8H8a8 8 0 0 1-8-8V38a8 8 0 0 1 8-8z" fill="#D7E1E6" fill-rule="nonzero"/><path fill="#FFF" d="M8 38v145h214V38z"/><path fill="#D7E1E6" d="M6 35h218v15H6z"/><circle fill="#FFF" cx="11" cy="40" r="3"/><circle fill="#FFF" cx="21" cy="40" r="3"/><circle fill="#FFF" cx="31" cy="40" r="3"/><path fill="#091527" d="M22.333 64H53v8H22.333z"/><path d="M17 72l2.03-4.917a3.026 3.026 0 0 1-1.151-1.184c-.293-.52-.44-1.228-.44-2.123 0-.626.084-1.177.25-1.653a3.37 3.37 0 0 1 .682-1.183 2.783 2.783 0 0 1 1.008-.705A3.177 3.177 0 0 1 20.59 60h1.742v12H17z" fill="#F43D20"/><path fill="#D7E1E6" d="M6 82h218v1H6zM52 114h130V98H52zM52 132h72v-6H52zM64 144h60v-4H64zM64 156h60v-4H64zM64 168h60v-4H64z"/><rect fill="#D7E1E6" transform="matrix(1 0 0 -1 0 284)" x="52" y="138" width="8" height="8" rx="2"/><rect fill="#D7E1E6" transform="matrix(1 0 0 -1 0 308)" x="52" y="150" width="8" height="8" rx="2"/><rect fill="#D7E1E6" transform="matrix(1 0 0 -1 0 332)" x="52" y="162" width="8" height="8" rx="2"/><g transform="translate(178)"><rect fill="#2A7BBE" x="8" y="8" width="84" height="58" rx="7"/><path d="M24 53c6.627 0 12 5.373 12 12s-5.373 12-12 12V53z" fill="#2A7BBE"/><rect fill="#FFCD00" width="84" height="58" rx="7"/><path d="M16 45c6.627 0 12 5.373 12 12s-5.373 12-12 12V45z" fill="#FFCD00"/><path fill="#FFF" d="M23 14h38v30H23z"/><path fill="#F43D20" d="M42 30L23 14h38z"/></g><path fill="#091527" d="M222 58h8v8h-8z"/></g></svg>