<svg xmlns="http://www.w3.org/2000/svg" width="14" height="14"><path fill-rule="evenodd" d="M5 4.989V9h4V4.989H5zm-2 0H.875C.391 4.989 0 4.544 0 3.994S.391 3 .875 3H3V.875C3 .392 3.447 0 4 0c.553 0 1 .392 1 .875V3h4V.875C9 .392 9.447 0 10 0c.553 0 1 .392 1 .875V3h2.125c.483 0 .875.444.875.994s-.392.995-.875.995H11V9h2.125c.483 0 .875.444.875.994s-.392.995-.875.995H11v2.136c0 .484-.447.875-1 .875-.553 0-1-.391-1-.875v-2.136H5v2.136c0 .484-.447.875-1 .875-.553 0-1-.391-1-.875v-2.136H.875c-.484 0-.875-.445-.875-.995S.391 9 .875 9H3V4.989z" opacity=".5"/></svg>